<svg version="1.2" width="124" viewBox="2500 4000 2000 3000" preserveAspectRatio="xMidYMid"
    fill-rule="evenodd" stroke-width="28.222" stroke-linejoin="round"
    xmlns="http://www.w3.org/2000/svg" xml:space="preserve" fill="green"><rect x="2500" y="4000" width="2000" height="3000" fill="orange"/><g class="Master_Slide"><g class="Background"/><g class="BackgroundObjects"/></g><g class="SlideGroup"><g class="Slide" clip-path="url(#presentation_clip_path)"><g class="Page"><g class="Group"><g class="com.sun.star.drawing.PolyPolygonShape"><path class="BoundingBox" fill="none" d="M2551 4909h1635v1335H2551z"/><path fill="silver" d="M3346 5145h-39l32-79 19-40 18-33 7-13 8-12 7-11 6-8 3-1v10l-1 8-1 5-1 6-3 13-4 17-5 18zm-55 36h40l-22 49-26 55-31 60-36 66-13 26-10 18-4 7-3 4-1 2-1 1v1h-2v-6l1-3 1-2 11-34 1-2 1-3 2-5 2-5 1-3 2-3 59-154zm71 0 443 5 356 7h6l2-1h1l1-1h1l1-1h1l1-1 1-1h1l1-2 1-1 1-2 1-2 1-1 1-2 1-3v-2l1-1v-5l-1-2v-1l-1-1v-1h-1v-1h-1v-1h-2l-1-1h-1l-2-1-507-7-291-6 15-34 12-33 11-31 10-30 7-23 4-21 3-18 2-16v-7l-1-3v-3l-1-2-1-3-1-2-1-2-1-2-2-1-2-2-1-1h-2l-2-1h-5l-14 2-2 1h-3l-2 1-3 2-5 4-6 6-7 7-7 10-15 23-16 31-19 37-42 94-4 8-1 2-1 2v2l-1 2-456-3-247 2h-4l-1 1h-2l-1 1-1 1h-1v1l-4 5-1 2-1 1-1 2v1l-1 2v7h1v1l1 1 1 1 1 1h2v1h39l69 2h132l459 5-38 100-38 103-36 107-36 111-44 159-19 76-17 74-14 70-10 64-3 29-2 27-1 26v24l1 22 1 10 1 9 2 9 2 7 3 7 3 6 3 6 4 4 4 4 5 4 5 2 5 2 6 1 6 1 5-1h6l5-2 6-1 5-3 6-2 6-4 5-3 12-9 12-11 12-13 13-15 25-32 26-36 25-40 26-42 90-165 55-118 2-6 1-5 1-2v-6l1-1v-5h-1l-1-1h-1v-1h-14v1h-1l-1 1-1 1v1l-1 1-1 2-1 1v2l-1 1-1 2-3 5-5 13v1l-2 3-2 3-5 8-5 11-7 15-86 161-27 48-27 46-54 86-13 20-12 16-12 15-11 11-5 5-5 4-4 3-5 3-4 3-4 1-4 1h-9l-2-1h-1l-2-1-1-1-2-1-2-2-3-3-2-4-2-4-1-4-2-5-1-6-1-6-1-14v-15l2-36 3-40 6-43 7-48 41-198 42-166 12-45 3-14 2-8 2-1 15-20 15-23 35-55 38-66 42-79z"/></g><g class="com.sun.star.drawing.PolyPolygonShape"><path class="BoundingBox" fill="none" d="M3318 5595h326v310h-326z"/><path fill="silver" d="m3372 5904 8-1 9-1 10-1 10-3 22-6 24-10 24-11 26-14 27-16 28-18 18-12 16-12 13-12 11-10 9-10 7-9 2-4 2-4 2-4 1-3 1-2v-3l1-2-1-1v-4l-1-1-1-1-1-1h-1l-1-1h-4l-2 1h-1l-2 1-2 1-2 1-4 3-5 3-5 4-5 6-6 6-8 9-10 10-24 20-28 21-30 19-32 17-30 14-15 5-13 4-13 3h-20l-4-1-4-2-3-1-2-2-1-1-1-1-2-1-1-2-1-2-1-3-1-5-1-4v-11l1-7 2-7 2-7 10-30 4-11 2-8 2-3 1-2 2-3 1-2 2-1 1-2 2-1 3-1 15-9 18-12 21-15 21-17 20-18 18-18 7-9 7-9 5-9 3-8 1-4v-12l-1-3-1-3-2-2-1-2-2-2-2-2-2-1-3-2h-3l-3-1h-8l-5 1-5 2-6 2-12 7-12 8-12 11-13 12-27 30-25 33-22 36-19 36-8 18-6 17-2 10-2 9-2 9v17l1 8 1 7 3 7 3 6 4 6 2 2 2 2 3 2 3 2 6 3 8 3 8 1zm32-184h-1v-2h1v-1l4-7 4-7 11-15 13-16 13-15 14-14 12-11 6-4 5-3 2-1 2-1h4v1h1v2h1v1l-1 1v3l-1 2-1 3-4 5-4 7-6 7-13 14-15 15-15 14-14 11-6 5-5 3-4 2-2 1z"/></g><g class="com.sun.star.drawing.PolyPolygonShape"><path class="BoundingBox" fill="none" d="M3395 5529h555v438h-555z"/><path fill="silver" d="M3410 5966h3v-1h2v-1h1l1-1 1-1 2-1 1-2 5-6 8-8 23-22 64-58 67-56 25-21 17-13 42 67 19 32 20 28 10 13 10 12 10 10 11 9 12 7 11 6 7 1 6 2 6 1h7l10-1h6l1-1h2l1-1 1-1h1l1-1 1-2 1-1v-2l1-1v-5l-1-1v-1l-1-1-1-1-1-1h-1l-1-1h-2l-1-1h-3l-7-2-6-3-14-8-13-11-13-13-13-15-12-16-23-34-19-33-15-29-9-22-2-7-1-2v-1l2-1 3-3 12-11 38-31 89-71 31-23 22-16 17-11 7-3 5-3 5-2 4-1h19l3-1h5l2-1 2-1h2l2-1 1-2 2-1 1-1 2-1 1-2 1-1v-1l1-2 1-1v-2l1-2v-3l-1-2v-1l-1-2v-1l-1-1-2-1-1-1-1-1h-2l-2-1h-11l-2 1h-2l-3 1-2 1-3 1h-6l-4 1-8 3-11 5-12 6-28 17-33 23-77 56-83 65h-1l-1-1-3-4-8-16-10-23-11-27-10-28-8-26-3-12-2-10v-14l3-4v-6l-1-2-1-2-1-1-2-2-1-1-2-2-2-1-1-1h-2l-3-1h-2l-2-1-1 1h-4v1h-2l-1 1-1 1-1 1-1 1-1 2-3 11-1 11v12l1 12 2 13 3 13 8 26 43 112-64 52-70 61-60 54-20 19-6 7-4 5v7l1 1v2l1 2 1 1 1 2 1 1 1 2 2 1 1 1h2l1 1z"/></g><g class="com.sun.star.drawing.PolyPolygonShape"><path class="BoundingBox" fill="none" d="M3414 4909h1635v1335H3414z"/><path fill="silver" d="M4209 5145h-40l33-79 19-40 17-33 8-13 7-12 7-11 7-8 3-1v4l-1 6-1 8v5l-1 6-3 13-4 17-6 18zm-55 36h39l-22 49-26 55-30 60-36 66-13 26-10 18-4 7-3 4-1 2-1 1-1 1h-2v-3l1-1v-2l1-3 1-2 11-34 1-2 1-3 2-5 2-5 1-3 1-3 60-154zm71 0 443 5 356 7h6l2-1h1l1-1h1l1-1h1l1-1 1-1 2-2 1-1 1-2 1-2 1-1v-2l1-3 1-2v-8l-1-1v-1l-1-1v-1h-1l-1-1h-1l-1-1h-2l-1-1-507-7-291-6 14-34 13-33 11-31 10-30 6-23 5-21 3-18 2-16-1-7v-3l-1-3v-2l-1-3-1-2-2-2-1-2-1-1-2-2-2-1h-2l-2-1h-4l-14 2-3 1h-2l-3 1-2 2-6 4-6 6-6 7-7 10-15 23-17 31-18 37-42 94-4 8-1 2-1 2-1 2v2l-457-3-247 2h-3l-2 1h-1l-1 1h-1v1h-1l-1 1-4 5-1 2v1l-1 2-1 1v3l-1 1v3l1 1v2l1 1 2 1 1 1h1l1 1h38l69 2h133l459 5-39 100-37 103-37 107-35 111-45 159-19 76-17 74-14 70-9 64-3 29-2 27-1 26v46l1 10 2 9 2 9 2 7 2 7 3 6 4 6 3 4 5 4 4 4 5 2 6 2 5 1 6 1 6-1h5l6-2 5-1 6-3 5-2 6-4 6-3 12-9 12-11 12-13 13-15 25-32 25-36 26-40 25-42 91-165 55-118 2-6 1-5v-2l1-2v-5l1-2v-2h-1v-1l-1-1h-1v-1h-14v1h-1l-1 1-1 1-1 1-1 1v2l-1 1-1 2-1 1-1 2-2 5-5 13v1l-2 3-2 3-5 8-6 11-7 15-86 161-26 48-27 46-54 86-13 20-13 16-11 15-11 11-5 5-5 4-5 3-4 3-5 3-4 1-4 1h-9l-1-1h-2l-1-1-2-1-1-1-3-2-2-3-2-4-2-4-2-4-1-5-1-6-1-6-1-14-1-15 2-36 4-40 5-43 8-48 41-198 42-166 12-45 3-14 2-8 1-1 15-20 16-23 34-55 38-66 43-79z"/></g><g class="com.sun.star.drawing.PolyPolygonShape"><path class="BoundingBox" fill="none" d="M2431 4789h1635v1335H2431z"/><path d="M3226 5025h-40l33-79 19-40 17-33 8-14 7-12 7-10 7-8 3-2v1l-1 4v5l-1 9v5l-1 5-3 14-4 16-6 19zm-55 35h39l-22 49-26 55-30 60-36 66-13 26-10 19-4 6-3 5-1 2-1 1h-1l-1 1v-1h-1v-4l1-2 1-2v-3l12-34 1-2 1-2 1-5 3-6 1-3 1-3 60-154zm70 0 444 6 356 7h4l2-1h2l1-1h1l1-1h1l1-1h1v-1l1-1 2-1 1-2 1-2 1-1 1-2v-1l1-3 1-2v-8l-1-2v-1h-1v-1h-1v-1h-1l-1-1h-1l-2-1h-1l-507-7-291-6 14-34 13-33 11-31 10-31 6-23 5-20 3-18 2-16-1-7v-3l-1-3-1-3v-2l-1-3-2-2-1-1-1-2-2-1-2-1-2-1h-2l-2-1h-2l-14 3h-3l-2 1-3 1-2 1-6 4-6 6-6 8-7 9-15 24-17 30-18 37-42 95-5 8v2l-1 1-1 2-1 2-456-2-247 1h-2l-1 1h-2l-1 1h-1l-1 1h-1v1h-1l-4 6-1 1v2l-1 1-1 2v1l-1 2v4l1 1v1l1 1 1 1 2 1 1 1h2l1 1h36l69 1h133l459 6-39 99-37 103-37 107-35 112-45 158-19 77-17 74-14 70-9 63-3 29-2 28-1 26v46l1 10 2 9 1 8 3 8 2 7 3 6 4 5 3 5 5 4 4 3 5 3 5 2 6 1h12l5-1 6-1 5-2 6-2 5-3 6-3 6-4 12-9 12-11 12-13 13-14 25-33 25-36 26-39 25-42 91-165 55-119 2-6 1-5v-2l1-2v-5l1-1v-3h-1v-1h-2v-1h-2l-1-1h-9l-1 1h-2v1l-1 1-1 1-1 1-1 1v1l-1 2-1 1-1 2-1 2-2 5-6 12v2l-1 2-2 3-5 9-6 11-7 14-86 161-27 49-27 46-53 86-14 19-12 17-12 14-10 12-5 4-5 4-5 4-4 3-5 2-4 2-4 1h-7l-2-1h-1l-2-1-1-1h-2l-1-1-3-3-2-3-2-3-2-4-2-5-1-5-1-5-1-6-1-14-1-16 2-36 4-39 5-44 8-48 41-197 42-167 12-45 3-13 2-8 1-2 15-20 16-23 34-54 38-67 43-79z"/></g><g class="com.sun.star.drawing.PolyPolygonShape"><path class="BoundingBox" fill="none" d="M3198 5475h326v310h-326z"/><path d="M3251 5783h9l9-1 10-2 10-2 22-7 23-9 25-12 26-13 27-16 27-18 18-13 16-12 13-11 11-11 9-10 7-9 3-4 2-4 2-3 1-4v-2l1-1v-7l-1-1v-1l-1-1-1-1h-1l-1-1h-6l-2 1h-1l-2 1-2 1-5 3-4 4-5 4-6 5-5 6-9 9-10 10-23 21-28 20-31 20-31 17-31 13-14 6-14 4-13 2-11 1h-5l-4-1-4-1-4-1-3-2-1-1-2-1-1-2-1-1-1-1-1-2-2-4-1-4v-16l1-6 1-7 3-8 10-30 3-10 3-8 1-3 2-3 1-2 2-2 1-2 2-1 2-1 2-2 15-8 19-13 20-14 21-17 21-18 17-18 8-10 6-9 5-8 4-9v-3l1-4v-6l-1-3-1-3-1-2-1-3-2-2-2-2-2-2-2-1-3-1-2-1h-4l-3-1-5 1-5 1-5 1-5 3-12 6-12 9-13 11-13 12-26 29-25 33-23 36-19 36-7 18-6 18-3 9-2 10-1 9-1 8v9l1 7 2 8 2 6 3 7 4 5 2 2 3 3 2 2 3 2 7 3 7 2 8 2zm33-183h-1v-3h1l3-7 5-7 11-16 12-16 14-15 13-13 13-11 5-4 5-3 2-1 2-1 2-1h2l1 1 1 1v5l-1 2-1 2-1 2-3 6-5 6-5 7-14 15-15 15-15 13-13 12-6 4-5 4-4 2h-2z"/></g><g class="com.sun.star.drawing.PolyPolygonShape"><path class="BoundingBox" fill="none" d="M3275 5408h555v439h-555z"/><path d="M3289 5845h5v-1h1l1-1 1-1h1l1-2 2-2 5-6 8-8 23-22 64-57 66-57 26-21 17-12 41 67 20 31 19 29 10 13 10 12 11 10 11 9 11 7 12 5 6 2 6 1 7 1h17l4-1h3l1-1h2l1-1 1-1 1-1 1-1v-2l1-1v-1l1-2v-3l-1-1v-1l-1-1-1-1v-1h-1l-1-1h-2l-1-1h-4l-7-2-7-3-13-9-13-11-14-13-12-15-13-16-22-33-20-34-14-29-10-21-2-7v-3l1-2 4-3 12-10 38-32 89-71 30-23 23-16 17-10 6-4 6-2 5-2 4-1 4-1h20l2-1h2l2-1 2-1 2-1 2-1 1-1 2-1 1-2 1-1 1-1 1-2 1-1v-1l1-2v-7l-1-2v-1l-1-1-1-2-1-1-1-1h-2l-2-1h-1l-3-1h-6l-2 1h-2l-3 1-2 1h-3l-2 1h-3l-3 1h-4l-9 3-10 5-12 7-29 17-33 22-76 57-84 65h-1l-1-2-3-4-8-16-10-23-10-27-10-28-8-26-3-11-2-10-1-8v-3l1-3 3-4v-5l-1-2-1-2-1-1-1-2-1-1-2-2-1-1-2-1-2-1-2-1-2-1h-8l-1 1h-2v1h-1l-1 1-1 1h-1v1l-2 2-2 11-2 12 1 12 1 12 2 12 3 13 8 27 43 111-64 53-71 61-59 53-20 19-7 7-4 5v5l1 2v2l1 2 1 1 1 2 1 1 1 2 1 1 1 1 2 1 1 1z"/></g><g class="com.sun.star.drawing.PolyPolygonShape"><path class="BoundingBox" fill="none" d="M3293 4789h1635v1335H3293z"/><path d="M4088 5025h-39l32-79 20-40 17-33 7-14 8-12 7-10 6-8 3-2v10l-1 9-1 5-1 5-3 14-4 16-5 19zm-55 35h40l-22 49-26 55-31 60-35 66-14 26-10 19-4 6-3 5-1 2-1 1h-1v1h-1v-7l1-2 1-3 11-34 1-2 1-2 2-5 2-6 1-3 2-3 59-154zm71 0 443 6 356 7h4l3-1h2l1-1h1v-1h1l1-1h1l1-1 1-1 1-1 2-2 1-2v-1l1-2 1-1 1-3v-2l1-1v-6l-1-1v-2l-1-1v-1h-1l-1-1-1-1h-2l-1-1h-2l-507-7-290-6 14-34 12-33 11-31 11-31 6-23 5-20 2-18 2-16v-7l-1-3v-3l-1-3-1-2-1-3-1-2-1-1-2-2-1-1-2-1-2-1h-2l-2-1h-3l-14 3h-2l-2 1-3 1-3 1-5 4-6 6-7 8-7 9-15 24-16 30-19 37-42 95-4 8-1 2-1 1v2l-1 2-456-2-247 1h-3l-1 1h-1l-1 1h-2v1h-1l-1 1-4 6-1 1-1 2-1 1v2l-1 1v7l1 1 1 1 1 1 1 1h1v1h3l1 1h36l69 1h133l459 6-39 99-38 103-36 107-36 112-44 158-19 77-17 74-14 70-10 63-3 29-2 28-1 26v24l1 22 1 10 1 9 2 8 2 8 3 7 3 6 3 5 4 5 4 4 5 3 5 3 5 2 6 1h11l6-1 5-1 6-2 5-2 6-3 6-3 5-4 12-9 12-11 13-13 12-14 26-33 25-36 25-39 26-42 90-165 55-119 2-6 1-5 1-2v-4l1-1v-6l-1-1h-1v-1h-2l-1-1h-9l-1 1h-2v1l-2 1v1l-1 1-1 1-1 1-1 2v1l-1 2-1 2-3 5-5 12v2l-2 2-2 3-4 9-6 11-7 14-86 161-27 49-27 46-54 86-13 19-12 17-12 14-11 12-5 4-5 4-4 4-5 3-4 2-4 2-4 1h-8l-1-1h-2l-1-1-2-1h-1l-2-1-2-3-3-3-2-3-1-4-2-5-1-5-2-5-1-6-1-14v-16l2-36 3-39 6-44 7-48 41-197 43-167 11-45 4-13 1-8 2-2 15-20 15-23 35-54 38-67 42-79z"/></g></g></g></g></g></svg>